<svg width="256" height="256" viewBox="0 0 256 256" fill="none" xmlns="http://www.w3.org/2000/svg">
  <rect width="256" height="256" rx="64" fill="#F3F6F7"/>
  <path
    d="M60 52C60 47.5817 63.5817 44 68 44H88C92.4183 44 96 47.5817 96 52V112H160V52C160 47.5817 163.582 44 168 44H188C192.418 44 196 47.5817 196 52V204C196 208.418 192.418 212 188 212H168C163.582 212 160 208.418 160 204V144H96V204C96 208.418 92.4183 212 88 212H68C63.5817 212 60 208.418 60 204V52Z"
    fill="#005578"
  />
  <path
    d="M173 70C173 67.2386 175.239 65 178 65H190V53C190 50.2386 192.239 48 195 48H205C207.761 48 210 50.2386 210 53V65H222C224.761 65 227 67.2386 227 70V80C227 82.7614 224.761 85 222 85H210V97C210 99.7614 207.761 102 205 102H195C192.239 102 190 99.7614 190 97V85H178C175.239 85 173 82.7614 173 80V70Z"
    fill="#8AA6B0"
  />
  <path
    d="M128 96L160 128L128 160L96 128L128 96Z"
    fill="#D7E4E8"
    fill-opacity="0.9"
  />
</svg>
